# xmcd CD database file generated by MAGIX-FreeDB-MP3_deluxe_16 v2.0beta1
# 
# Track frame offsets:
#      150
#      12444
#      30573
#      47054
#      61460
#      78795
#      94856
#      111951
#      127482
#      142548
#      163449
#      180834
#      208136
# 
# Disc length: 3171 seconds
# 
# Revision: 3 
# Processed by: cddbd v1.5.2PL0 Copyright (c) Steve Scherf et al.
# Submitted via: MAGIX-FreeDB-MP3_deluxe_16 v2.0beta1
# 
DISCID=b00c610d
DTITLE=Cyril Mokaiesh - Du rouge et des passions
DYEAR=2011
DGENRE=Country
TTITLE0=Cyril Mokaiesh - Mon époque
TTITLE1=Cyril Mokaiesh - Communiste
TTITLE2=Cyril Mokaiesh - Le sens du manège
TTITLE3=Cyril Mokaiesh - Du rouge et des passions
TTITLE4=Cyril Mokaiesh - Des jours inouis
TTITLE5=Cyril Mokaiesh - Folie quelque part
TTITLE6=Cyril Mokaiesh - Nos yeux
TTITLE7=Cyril Mokaiesh - Tes airs de rien
TTITLE8=Cyril Mokaiesh - Remettre un peu de bleu
TTITLE9=Cyril Mokaiesh - Des mots
TTITLE10=Cyril Mokaiesh - Le cri des essouflés
TTITLE11=Cyril Mokaiesh - Chère amie
TTITLE12=Cyril Mokaiesh - DONNEES
EXTD=YEAR: 2011
EXTT0=
EXTT1=
EXTT2=
EXTT3=
EXTT4=
EXTT5=
EXTT6=
EXTT7=
EXTT8=
EXTT9=
EXTT10=
EXTT11=
EXTT12=
PLAYORDER=
